<svg width="26" height="27" fill="none" xmlns="http://www.w3.org/2000/svg"><g clip-path="url(#a)" fill="#fff"><path opacity=".5" d="M13 1.5c-6.627 0-12 5.373-12 12s5.373 12 12 12 12-5.373 12-12-5.373-12-12-12Zm0-1c7.18 0 13 5.82 13 13s-5.82 13-13 13-13-5.82-13-13S5.82.5 13 .5Z"/><path d="M14 8.5a1 1 0 1 0-2 0v10a1 1 0 1 0 2 0v-10Z"/><path d="M18 12.5H8a1 1 0 1 0 0 2h10a1 1 0 1 0 0-2Z"/></g><defs><clipPath id="a"><path fill="#fff" transform="translate(0 .5)" d="M0 0h26v26H0z"/></clipPath></defs></svg>